<?xml version="1.0" encoding="UTF-8"?>
<svg version="1.1" viewBox="0 0 430 430" xmlns="http://www.w3.org/2000/svg" xmlnsXlink="http://www.w3.org/1999/xlink">
<title>record dummy</title>
<desc>Created with Sketch.</desc>
<g fill="none" fill-rule="evenodd" sketchType="MSPage">
<g transform="translate(-150 -878)" sketchType="MSArtboardGroup">
<g transform="translate(130 545)" sketchType="MSLayerGroup">
<g transform="translate(0 91)" sketchType="MSShapeGroup">
<g transform="translate(0 156)">
<g transform="translate(20 86)">
<rect width="430" height="430" fill="#F1F1F1"/>
<path d="m215.5 401c102.45 0 185.5-83.051 185.5-185.5s-83.051-185.5-185.5-185.5-185.5 83.051-185.5 185.5 83.051 185.5 185.5 185.5zm0.5-127c32.033 0 58-25.967 58-58s-25.967-58-58-58-58 25.967-58 58 25.967 58 58 58zm-0.5-47c6.3513 0 11.5-5.1487 11.5-11.5s-5.1487-11.5-11.5-11.5-11.5 5.1487-11.5 11.5 5.1487 11.5 11.5 11.5zm0-5.5c3.3137 0 6-2.6863 6-6s-2.6863-6-6-6-6 2.6863-6 6 2.6863 6 6 6z" fill="#E2E2E2"/>
</g>
</g>
</g>
</g>
</g>
</g>
</svg>
